<svg width="74" height="20" viewBox="0 0 74 20" fill="none" xmlns="http://www.w3.org/2000/svg">
<path fill-rule="evenodd" clip-rule="evenodd" d="M3.51481 0.975318H0.668823V18.7807H11.0965V16.0917H3.51481V0.975318ZM17.2559 6.32904C18.9862 6.32904 20.1474 7.08002 20.7849 8.00057L20.9215 6.57129H23.3804V18.7807H20.9215L20.7849 17.3514C20.1474 18.272 18.9862 19.0229 17.2559 19.0229C14.1367 19.0229 12.0193 16.334 12.0193 12.676C12.0193 8.99379 14.1367 6.32904 17.2559 6.32904ZM17.8478 8.89689C16.0719 8.89689 14.7969 10.3746 14.7969 12.676C14.7969 14.9774 16.0719 16.4551 17.8478 16.4551C19.2139 16.4551 20.0336 15.6799 20.6483 14.6382V10.7138C20.0336 9.67209 19.2139 8.89689 17.8478 8.89689ZM30.2684 2.47727H27.5362V6.57129H25.3733V9.04224H27.5362V14.4686C27.5362 17.4241 29.1983 19.0229 31.8166 19.0229C32.955 19.0229 33.7974 18.6838 34.3666 18.2962L33.638 16.019C33.2965 16.2371 32.7956 16.4066 32.067 16.4066C30.997 16.4066 30.2684 15.6799 30.2684 14.4444V9.04224H33.7291V6.57129H30.2684V2.47727ZM39.6836 2.47727H36.9514V6.57129H34.7885V9.04224H36.9514V14.4686C36.9514 17.4241 38.6135 19.0229 41.2318 19.0229C42.3702 19.0229 43.2126 18.6838 43.7818 18.2962L43.0532 16.019C42.7117 16.2371 42.2108 16.4066 41.4822 16.4066C40.4121 16.4066 39.6836 15.6799 39.6836 14.4444V9.04224H43.1443V6.57129H39.6836V2.47727ZM48.3474 6.57129H45.6153V18.7807H48.3474V6.57129ZM46.9813 0.878418C46.0251 0.878418 45.2965 1.62939 45.2965 2.67107C45.2965 3.71274 46.0251 4.46372 46.9813 4.46372C47.9603 4.46372 48.6889 3.71274 48.6889 2.67107C48.6889 1.62939 47.9603 0.878418 46.9813 0.878418ZM56.6014 6.32904C53.0724 6.32904 50.7273 8.99379 50.7273 12.676C50.7273 16.334 53.0952 19.0229 56.6242 19.0229C58.6961 19.0229 60.267 18.0297 61.2916 16.334L59.3336 14.7109C58.7871 15.6799 57.8992 16.4793 56.647 16.4793C54.6206 16.4793 53.505 14.8078 53.505 12.676C53.505 10.52 54.5751 8.87267 56.6242 8.87267C57.8992 8.87267 58.7416 9.64787 59.2653 10.6169L61.2461 9.01802C60.2215 7.32227 58.6961 6.32904 56.6014 6.32904ZM67.9746 6.32904C71.5036 6.32904 73.234 9.13914 73.234 12.5549V13.5723H65.1286C65.197 15.5103 66.2898 16.5762 68.2023 16.5762C69.5456 16.5762 70.5246 15.9464 71.0483 15.1712L72.938 16.8185C71.7996 18.272 70.297 19.0229 68.1795 19.0229C64.6278 19.0229 62.351 16.3582 62.351 12.7002C62.351 9.01802 64.6733 6.32904 67.9746 6.32904ZM67.9291 8.65464C66.3126 8.65464 65.2197 9.79322 65.1286 11.489H70.5474C70.4791 9.81744 69.5684 8.65464 67.9291 8.65464Z" fill="white" fill-opacity="0.8"/>
</svg>
