<svg width="39" height="24" viewBox="0 0 39 24" fill="none" xmlns="http://www.w3.org/2000/svg">
<path fill-rule="evenodd" clip-rule="evenodd" d="M10.7091 16.2417L14.0499 19.6553L11.263 22.6237C10.3592 23.5862 8.89371 23.5862 7.98998 22.6237L1.03497 15.2161C0.131246 14.2533 0.131246 12.6927 1.03497 11.7302C1.93899 10.7677 3.40422 10.7677 4.30795 11.7302L9.62647 17.3948L10.7091 16.2417ZM11.5775 15.3168L14.5365 12.1652L17.8092 15.6512L15.0845 18.5533L11.5775 15.3168Z" fill="#CECCD3"/>
<path fill-rule="evenodd" clip-rule="evenodd" d="M24.9657 18.4879L21.4785 15.2301L29.6732 6.50217C30.5769 5.53964 32.0422 5.53964 32.9462 6.50217C33.8499 7.4647 33.8499 9.02527 32.9462 9.98811L24.9657 18.4879ZM23.8812 19.6429L21.0826 22.6236C20.1786 23.5862 18.7133 23.5862 17.8096 22.6236L5.94484 9.98687C5.04111 9.02403 5.04111 7.46347 5.94484 6.50094C6.84857 5.5381 8.3138 5.5381 9.21782 6.50094L19.4461 17.3947L20.5965 16.1695L23.8812 19.6429Z" fill="#CECCD3"/>
<path fill-rule="evenodd" clip-rule="evenodd" d="M19.9373 14.4307L23.1948 10.9286L29.2658 17.3947L34.5832 11.7313C35.4872 10.7688 36.9525 10.7688 37.8562 11.7313C38.7599 12.6942 38.7599 14.2547 37.8562 15.2173L30.9023 22.6236C29.9986 23.5861 28.5334 23.5861 27.6296 22.6236L19.9373 14.4307ZM18.5878 12.9935L10.8548 4.75732C9.9511 3.79479 9.9511 2.23422 10.8548 1.27169C11.7588 0.308851 13.2241 0.308851 14.1278 1.27169L21.8688 9.51638L18.5878 12.9935Z" fill="#CECCD3"/>
<path fill-rule="evenodd" clip-rule="evenodd" d="M28.0364 1.27292C27.1327 0.310393 25.6675 0.310393 24.7634 1.27292L14.5363 12.1655L17.8093 15.6514L28.0364 4.75886C28.9401 3.79602 28.9401 2.23545 28.0364 1.27292Z" fill="#CECCD3"/>
</svg>
